<svg xmlns="http://www.w3.org/2000/svg" width="500" viewBox="0 0 375 375" height="500" version="1.0">
  <defs>
    <linearGradient id="b" x1="0.27" y1="0.05" x2="0.73" y2="0.95">
      <stop offset="0%" stop-color="#fd7e14"/>
      <stop offset="100%" stop-color="#fab005"/>
    </linearGradient>
    <clipPath id="a">
      <path d="M52.5 0h270C351.496 0 375 23.504 375 52.5v270c0 28.996-23.504 52.5-52.5 52.5h-270C23.504 375 0 351.496 0 322.5v-270C0 23.504 23.504 0 52.5 0Zm0 0"/>
    </clipPath>
  </defs>
  <g clip-path="url(#a)">
    <path fill="url(#b)" d="M-37.5-37.5h450v450h-450z"/>
  </g>
  <path stroke-linecap="round" fill="none" stroke-linejoin="round" d="M81.336 81.336h212.5a26.383 26.383 0 0 1 5.184.512c.851.168 1.695.379 2.527.632a26.952 26.952 0 0 1 4.813 1.992c.765.41 1.511.86 2.234 1.34a27.135 27.135 0 0 1 4.027 3.305 27.345 27.345 0 0 1 1.75 1.93 26.823 26.823 0 0 1 2.89 4.332c.41.766.782 1.55 1.118 2.355.332.805.625 1.621.875 2.453.254.833.465 1.676.637 2.532.168.851.296 1.71.382 2.578.082.863.125 1.734.125 2.601v159.375c0 .872-.043 1.739-.125 2.606a27.531 27.531 0 0 1-.382 2.578 26.872 26.872 0 0 1-.637 2.527c-.25.832-.543 1.653-.875 2.457-.336.801-.707 1.586-1.117 2.356-.41.765-.856 1.512-1.34 2.234-.48.723-1 1.422-1.55 2.094a28.302 28.302 0 0 1-1.75 1.934 28.302 28.302 0 0 1-1.935 1.75c-.671.55-1.37 1.07-2.093 1.55a26.4 26.4 0 0 1-2.235 1.34c-.77.41-1.554.781-2.355 1.117-.805.332-1.625.625-2.457.875-.832.254-1.676.465-2.527.637-.856.168-1.715.297-2.579.383a27.63 27.63 0 0 1-2.605.125h-212.5c-.867 0-1.738-.043-2.602-.125a27.152 27.152 0 0 1-2.578-.383c-.855-.172-1.699-.383-2.531-.637a26.172 26.172 0 0 1-4.809-1.992 26.47 26.47 0 0 1-8.011-6.574 27.138 27.138 0 0 1-1.555-2.094c-.48-.722-.93-1.469-1.34-2.234-.41-.77-.781-1.555-1.113-2.356a27.44 27.44 0 0 1-.879-2.457 25.695 25.695 0 0 1-.633-2.527 26.383 26.383 0 0 1-.512-5.184V107.898c0-.867.043-1.738.13-2.601.085-.867.21-1.727.382-2.578.168-.856.38-1.7.633-2.532.254-.832.547-1.648.879-2.453.332-.804.703-1.59 1.113-2.355.41-.77.86-1.512 1.34-2.238a27.915 27.915 0 0 1 1.555-2.094 25.56 25.56 0 0 1 1.75-1.93 25.56 25.56 0 0 1 1.93-1.75c.675-.55 1.37-1.07 2.093-1.555.727-.48 1.469-.93 2.238-1.34.766-.41 1.551-.78 2.356-1.113a27.357 27.357 0 0 1 2.453-.879 25.496 25.496 0 0 1 2.531-.632c.852-.172 1.711-.297 2.578-.383a26.304 26.304 0 0 1 2.602-.13Zm0 0" stroke="#fff" stroke-width="26.5625"/>
  <path stroke-linecap="round" fill="none" stroke-linejoin="round" d="m320.398 121.18-119.132 75.703a25.556 25.556 0 0 1-3.18 1.695 25.812 25.812 0 0 1-14.094 1.984 25.938 25.938 0 0 1-3.523-.75 25.835 25.835 0 0 1-6.562-2.93L54.772 121.18" stroke="#fff" stroke-width="26.5625"/>
</svg>
